<?xml version="1.0" encoding="UTF-8"?>
<svg id="Layer_1" xmlns="http://www.w3.org/2000/svg" version="1.1" viewBox="0 0 24 57.1">
  <!-- Generator: Adobe Illustrator 29.2.1, SVG Export Plug-In . SVG Version: 2.1.0 Build 116)  -->
  <defs>
    <style>
      .st0 {
        fill: #1965d6;
      }

      .st1 {
        fill: #ddd;
      }
    </style>
  </defs>
  <g id="Layer_3">
    <g id="tags">
      <path class="st0" d="M22.2,50.4l-6,6c-.2.1-.4,0-.5,0l-1.1-1.1,4.8-4.8c.3-.2.4-.5.2-.8,0,0-.1-.2-.2-.2l-9-9h2c.2,0,.5,0,.7.1.2.1.3.2.4.4l8.6,8.6c.3.3.3.7,0,.9,0,0,0,0,0,0Z"/>
      <path class="st0" d="M9.3,40.7c-.2-.1-.4-.2-.6-.2H2.7c-.2,0-.3.2-.3.3h0v6c0,.2,0,.4.2.6l9,9c.1.1.3.1.5,0l6.2-6.2c.1-.1.1-.3,0-.5l-9-9ZM6.7,44.8c-.5.5-1.4.5-1.9,0s-.5-1.4,0-1.9c.5-.5,1.4-.5,1.9,0,.5.5.5,1.4,0,1.9,0,0,0,0,0,0Z"/>
    </g>
  </g>
  <g id="Layer_4">
    <g id="tags-2">
      <path class="st1" d="M22.2,10.4l-6,6c-.2.1-.4,0-.5,0l-1.1-1.1,4.8-4.8c.3-.2.4-.5.2-.8,0,0-.1-.2-.2-.2L10.5.4h2c.2,0,.5,0,.7.1.2.1.3.2.4.4l8.6,8.6c.3.3.3.7,0,.9,0,0,0,0,0,0Z"/>
      <path class="st1" d="M9.3.7c-.2-.1-.4-.2-.6-.2H2.7c-.2,0-.3.2-.3.3v6c0,.2,0,.4.2.6l9,9c.1.1.3.1.5,0l6.2-6.2c.1-.1.1-.3,0-.5L9.3.7ZM6.7,4.8c-.5.5-1.4.5-1.9,0s-.5-1.4,0-1.9c.5-.5,1.4-.5,1.9,0,.5.5.5,1.4,0,1.9,0,0,0,0,0,0Z"/>
    </g>
  </g>
</svg>